<?xml version="1.0" standalone="no"?><!DOCTYPE svg PUBLIC "-//W3C//DTD SVG 1.1//EN" "http://www.w3.org/Graphics/SVG/1.1/DTD/svg11.dtd"><svg t="1566818272919" class="icon" viewBox="0 0 1024 1024" version="1.1" xmlns="http://www.w3.org/2000/svg" p-id="2030" xmlns:xlink="http://www.w3.org/1999/xlink" width="200" height="200"><defs><style type="text/css"></style></defs><path d="M512 1024C229.236364 1024 0 794.763636 0 512S229.236364 0 512 0s512 229.236364 512 512-229.236364 512-512 512zM256.023273 186.205091L256 186.181818v673.28l324.608 1.233455c97.070545 3.677091 108.171636-19.688727 108.171636-19.688728l-73.774545 1.18691v-20.89891l109.451636-1.233454c8.587636-2.490182 17.198545-22.178909 17.198546-22.178909l-126.650182 1.233454v-20.945454h146.315636c8.634182-1.186909 9.844364-20.922182 9.844364-20.922182l-413.067636 1.256727v-19.688727h421.701818c9.821091-9.844364 6.144-22.132364 6.144-22.132364H358.097455v-19.712l431.546181-2.466909c3.677091-8.610909 0-19.688727 0-19.688727H358.097455v-18.455273l431.546181-3.677091c2.420364-11.101091-2.466909-17.245091-2.466909-17.245091H358.120727v-18.478545l422.912-2.443636c0-11.077818-15.988364-22.109091-15.988363-22.109091l-406.923637 3.653818v-22.178909l398.359273-2.443637c0-7.400727-15.988364-19.688727-15.988364-19.688727H567.156364v-18.455273l147.525818-3.723636c-6.144-17.221818-47.965091-17.221818-47.965091-17.221818l-99.560727-1.256727v-18.455273l61.44 1.210182c50.432 2.490182 57.786182-22.109091 57.786181-22.109091l-328.238545 2.443636v-19.712l357.725091-1.210182c13.498182-3.700364 14.778182-23.389091 14.778182-23.389091l-372.503273 2.46691v-18.432l384.768-2.490182c9.890909-4.910545 9.890909-20.922182 9.890909-20.922182l-394.658909 2.466909v-19.688727l400.756364-3.723637c6.144-8.610909 3.677091-20.898909 3.677091-20.898909l-404.456728 1.210182v-20.898909h403.223273c0-4.933818-2.466909-20.945455-2.466909-20.945455l-400.756364 1.256728v-20.922182h394.658909c3.677091-15.988364-11.101091-23.389091-11.101091-23.389091h-126.650181v-18.455273l114.338909-1.233454c0-8.610909-15.988364-19.688727-15.988364-19.688728l-98.350545-1.210181v-19.688728h63.953454C666.693818 186.181818 601.506909 186.181818 601.506909 186.181818H256.023273z" p-id="2031" fill="#ffffff"></path></svg>